<?xml version="1.0" encoding="utf-8"?>
<!-- Generator: Adobe Illustrator 16.0.0, SVG Export Plug-In . SVG Version: 6.00 Build 0)  -->
<!DOCTYPE svg PUBLIC "-//W3C//DTD SVG 1.1//EN" "http://www.w3.org/Graphics/SVG/1.1/DTD/svg11.dtd">
<svg version="1.1" id="Layer_1" xmlns="http://www.w3.org/2000/svg" xmlns:xlink="http://www.w3.org/1999/xlink" x="0px" y="0px"
	 width="256.54px" height="256.119px" viewBox="0 0 256.54 256.119" enable-background="new 0 0 256.54 256.119"
	 xml:space="preserve">
<path fill="#269999" d="M0,0v256.119h256.54V0H0z M239.663,240.929H16.034V16.457h223.629V240.929z"/>
<g>
	<path fill="#269999" d="M46.317,67.632c8.789-1.496,21.13-2.618,38.521-2.618c17.577,0,30.106,3.366,38.521,10.098
		c8.04,6.357,13.463,16.83,13.463,29.171s-4.113,22.813-11.594,29.919c-9.724,9.163-24.122,13.276-40.952,13.276
		c-3.74,0-7.106-0.187-9.724-0.561v45.066H46.317V67.632z M74.554,124.853c2.431,0.561,5.423,0.748,9.537,0.748
		c15.146,0,24.496-7.667,24.496-20.569c0-11.594-8.041-18.513-22.252-18.513c-5.797,0-9.724,0.561-11.781,1.122V124.853z"/>
	<path fill="#269999" d="M149.915,167.114c5.236,3.18,16.082,6.92,24.497,6.92c8.602,0,12.154-2.992,12.154-7.668
		c0-4.674-2.805-6.918-13.464-10.471c-18.887-6.358-26.18-16.643-25.992-27.488c0-17.017,14.586-29.919,37.212-29.919
		c10.659,0,20.195,2.431,25.806,5.236l-5.049,19.634c-4.114-2.244-11.968-5.236-19.821-5.236c-6.919,0-10.846,2.805-10.846,7.48
		c0,4.301,3.553,6.545,14.772,10.472c17.391,5.984,24.684,14.773,24.87,28.236c0,17.018-13.464,29.546-39.643,29.546
		c-11.968,0-22.627-2.618-29.546-6.358L149.915,167.114z"/>
</g>
</svg>
