<?xml version="1.0" encoding="utf-8"?>
<!-- Generator: Adobe Illustrator 16.0.0, SVG Export Plug-In . SVG Version: 6.00 Build 0)  -->
<!DOCTYPE svg PUBLIC "-//W3C//DTD SVG 1.1//EN" "http://www.w3.org/Graphics/SVG/1.1/DTD/svg11.dtd">
<svg version="1.1" id="Layer_1" xmlns="http://www.w3.org/2000/svg" xmlns:xlink="http://www.w3.org/1999/xlink" x="0px" y="0px"
	 width="256.54px" height="256.119px" viewBox="0 0 256.54 256.119" enable-background="new 0 0 256.54 256.119"
	 xml:space="preserve">
<path fill="#269999" d="M2.304,30.42v197.629l146.621,28.069v-61.173V1.882L2.304,30.42z M109.532,178.395H90.331l-14.716-72.829
	l-14.083,72.829H42L21.806,80.739h18.208l12.579,76.468l15.228-76.468h18.538l14.234,75.807l11.256-75.807h17.573L109.532,178.395z"
	/>
<path fill="#269999" d="M158.939,227.303h89.875c0,0,7.726,0,7.726-8.441s0-180.746,0-180.746s-0.277-5.958-6.98-5.958
	c-6.703,0-90.621,0-90.621,0v28.304l68.524,0.248l0.248,20.11h-68.772v19.366l68.524,0.744l-0.248,18.621l-68.276,0.248v19.862
	l68.276,0.249l-0.248,19.366l-68.028-0.248v18.869l67.779,0.248l0.498,19.364l-68.276,0.25V227.303z"/>
</svg>
