<?xml version="1.0" encoding="utf-8"?>
<!-- Generator: Adobe Illustrator 16.0.0, SVG Export Plug-In . SVG Version: 6.00 Build 0)  -->
<!DOCTYPE svg PUBLIC "-//W3C//DTD SVG 1.1//EN" "http://www.w3.org/Graphics/SVG/1.1/DTD/svg11.dtd">
<svg version="1.1" id="Layer_1" xmlns="http://www.w3.org/2000/svg" xmlns:xlink="http://www.w3.org/1999/xlink" x="0px" y="0px"
	 width="256.54px" height="256.119px" viewBox="0 0 256.54 256.119" enable-background="new 0 0 256.54 256.119"
	 xml:space="preserve">
<path fill="#269999" d="M252.306,100.047c0-10.085-47.398-10.085-59.5-9.077c-12.102,1.009-35.296,6.169-36.305,25.271
	c-1.008,19.102,52.44,63.474,52.44,78.601c0,15.128-58.491,15.128-65.55,14.119c-7.06-1.009-39.331,6.051-7.06,11.093
	c32.271,5.043,77.652,6.051,95.805-11.093c18.152-17.145-21.178-57.483-34.288-69.584c-13.11-12.102-25.211-35.296,13.11-33.279
	C249.281,108.114,252.306,100.047,252.306,100.047z"/>
<path fill="#269999" d="M187.271,31.411c-0.943,27.646-45.848,60.568-65.033,70.653c-19.186,10.085-48.645,19.511,8.043-21.178
	s19.224-52.44,12.133-54.458c-7.091-2.017-93.547-4.034-32.167-15.127C171.629,0.208,187.571,22.641,187.271,31.411z"/>
<path fill="#269999" d="M55.655,125.258c-20.169,3.025-35.296,10.085,0,12.102c35.296,2.017,61.517,4.818,61.517,19.553
	c0,14.735-26.22,40.955-49.415,53.057c-23.195,12.102-38.322,21.178-16.135-17.145c22.186-38.322,26.22-63.533-11.093-9.076
	c-37.313,54.457-48.407,73.618-17.144,63.533c31.263-10.084,62.574-23.644,98.854-59.724c36.28-36.081,18.177-57.258,0-62.301
	S55.655,125.258,55.655,125.258z"/>
</svg>
